<svg xmlns="http://www.w3.org/2000/svg" version="1.1" xmlns:xlink="http://www.w3.org/1999/xlink" xmlns:svgjs="http://svgjs.dev/svgjs" viewBox="0 0 800 800"><defs><linearGradient x1="50%" y1="0%" x2="50%" y2="100%" id="ccchaos-grad"><stop stop-color="hsl(206, 75%, 49%)" stop-opacity="1" offset="0%"></stop><stop stop-color="hsl(331, 90%, 56%)" stop-opacity="1" offset="100%"></stop></linearGradient></defs><g stroke-width="2" stroke="url(#ccchaos-grad)" fill="none" stroke-linecap="round"><path d="M110.64 104.59Q119.35 107.09 128.06 109.85 136.77 112.77 145.48 115.73 154.19 118.63 162.91 121.35 171.62 123.8 180.33 125.87 189.04 127.5 197.75 128.62 215.17 128.91 232.6 127.5 241.31 125.87 250.02 123.79 258.73 121.34 267.44 118.62 276.15 115.72 284.86 112.76 293.57 109.84 302.29 107.08 311 104.59 319.71 102.44 328.42 100.73 337.13 99.52 354.55 99.04 371.97 100.26 380.69 101.81 389.4 103.82 398.11 106.21 406.82 108.89 415.53 111.77 424.24 114.73 432.95 117.66 441.66 120.45 450.38 123 459.09 125.22 467.8 127 476.51 128.3 493.93 128.97 511.35 127.94 520.07 126.47 528.78 124.54 537.49 122.21 546.2 119.57 554.91 116.72 563.62 113.76 572.33 110.82 581.04 108 589.76 105.4 598.47 103.12 607.18 101.26 615.89 99.87 633.31 99.01 650.73 99.85 659.45 101.23 668.16 103.09 675.43 111.74 683.17 120.38 691.02 129.02 698.66 137.66 705.75 146.31 711.99 154.95 717.12 163.59 720.9 172.23 723.05 189.52 720.37 206.8 716.35 215.45 711.03 224.09 704.63 232.73 697.42 241.37 689.72 250.01 681.87 258.66 674.19 267.3 667.01 275.94 660.66 284.58 655.4 293.23 651.45 301.87 648.99 310.51 648.12 319.15 648.89 327.8 651.25 336.44 655.1 345.08 660.29 353.72 666.58 362.37 673.71 371.01 681.37 379.65 689.23 388.29 696.94 396.94 704.19 405.58 710.65 414.22 716.05 422.86 720.16 431.51 723.04 448.79 721.09 466.08 717.4 474.72 712.36 483.36 706.18 492 699.13 500.65 691.52 509.29 683.67 517.93 675.92 526.57 668.6 535.22 662.03 543.86 656.5 552.5 652.23 561.14 649.42 569.79 649.37 587.07 654.09 604.35 658.99 613 665.05 621.64 672.02 630.28 679.58 638.92 677.41 647.19 658.98 644.27 649.93 645.06 640.87 647.4 631.82 651.19 622.77 656.29 613.71 662.5 604.66 669.6 595.6 677.32 586.55 685.36 577.5 693.43 568.44 701.22 559.39 708.43 550.33 714.8 541.28 720.09 532.22 724.09 523.17 726.66 514.12 727.7 505.06 727.17 496.01 725.09 486.95 721.54 477.9 716.65 468.84 710.61 459.79 703.64 450.74 696.01 441.68 688 432.63 679.91 423.57 672.06 414.52 664.73 405.46 658.2 396.41 652.71 387.36 648.48 378.3 645.66 369.25 644.35 360.19 644.62 351.14 646.44 342.08 649.75 333.03 654.42 323.98 660.29 314.92 667.11 305.87 674.65 296.81 682.62 287.76 690.71 278.7 698.63 269.65 706.07 260.6 712.76 251.54 718.43 242.49 722.89 233.43 725.96 224.38 727.52 215.32 727.53 206.27 725.97 197.22 722.9 188.16 718.45 179.11 712.77 170.05 706.09 161 698.65 151.94 690.74 142.89 682.64 133.84 674.67 124.78 667.13 115.73 660.3 114.26 651.62 112.79 642.94 111.36 634.25 110.05 625.57 108.12 608.2 106.95 590.84 107.26 573.47 108.44 556.11 109.49 547.42 110.72 538.74 112.1 530.06 113.56 521.37 115.03 512.69 116.47 504.01 118.85 486.64 120.6 469.28 120.97 451.91 120.42 434.54 119.65 425.86 118.64 417.18 117.42 408.5 116.06 399.81 114.6 391.13 113.12 382.45 111.68 373.76 110.34 365.08 108.31 347.71 107.01 330.35 107.18 312.98 108.24 295.62 109.23 286.93 110.42 278.25 111.77 269.57 113.22 260.88 114.7 252.2 116.15 243.52 118.6 226.15 120.46 208.79 120.97 191.42 120.56 174.05 118.78 156.69 116.38 139.32 114.94 130.64 113.46 121.96 112.01 113.27 110.64 104.59" stroke-dasharray="15 16" transform="rotate(0, 400, 400)" opacity="0.21"></path><path d="M123.2 118.5Q140.17 124.2 157.15 130.01 174.12 135.12 191.09 138.84 208.06 140.65 225.04 140.3 242.01 137.83 258.98 133.6 275.96 128.18 292.93 122.32 309.9 116.82 326.87 112.46 343.85 109.83 360.82 109.28 377.79 110.91 394.76 114.48 411.74 119.5 428.71 125.28 445.68 131.02 462.66 135.93 479.63 139.33 496.6 140.75 513.57 140 530.55 137.17 547.52 132.67 564.49 127.11 581.46 121.25 598.44 115.92 615.41 111.83 632.38 109.56 649.36 109.42 666.33 111.43 681.12 127.94 694.95 144.44 705.63 160.95 711.48 177.45 711.58 193.95 705.91 210.46 695.37 226.96 681.62 243.47 666.82 259.97 653.31 276.48 643.22 292.98 638.14 309.49 638.87 325.99 645.29 342.49 656.4 359 670.44 375.5 685.2 392.01 698.35 408.51 707.82 425.02 712.11 441.52 710.55 458.02 703.39 474.53 691.75 491.03 677.47 507.54 662.8 524.04 650.05 540.55 641.23 557.05 637.74 573.56 640.12 590.06 648 606.56 658.78 628.7 640.26 634.69 623.08 640.61 605.9 651.28 588.72 665.22 571.54 680.51 554.37 695.04 537.19 706.81 520.01 714.18 502.83 716.14 485.65 712.43 468.48 703.55 451.3 690.73 434.12 675.74 416.94 660.65 399.76 647.53 382.59 638.21 365.41 633.96 348.23 635.37 331.05 642.25 313.87 653.65 296.7 668 279.52 683.31 262.34 697.47 245.16 708.53 227.98 714.96 210.81 715.88 193.63 711.16 176.45 701.45 159.27 688.08 142.09 672.91 124.92 658.03 121.92 641.17 119.41 624.31 117.77 607.45 117.28 590.59 118.01 573.73 119.83 556.87 122.47 540.01 125.51 523.15 128.46 506.29 130.87 489.43 132.36 472.57 132.68 455.71 131.79 438.85 129.83 421.99 127.11 405.12 124.05 388.26 121.15 371.4 118.85 354.54 117.51 337.68 117.36 320.82 118.42 303.96 120.5 287.1 123.3 270.24 126.37 253.38 129.21 236.52 131.4 219.66 132.57 202.8 132.55 185.94 131.34 169.08 129.13 152.22 126.26 135.36 123.2 118.5" stroke-dasharray="10 12" transform="rotate(4.04, 400, 400)" opacity="0.88"></path><path d="M136.17 133Q152.69 138.81 169.21 144.26 185.73 148.66 202.25 151.45 218.77 152.27 235.28 151.02 251.8 147.86 268.32 143.18 284.84 137.6 301.36 131.8 317.88 126.54 334.4 122.49 350.92 120.15 367.43 119.83 383.95 121.57 400.47 125.14 416.99 130.1 433.51 135.8 450.03 141.53 466.55 146.56 483.07 150.24 499.58 152.11 516.1 151.92 532.62 149.71 549.14 145.76 565.66 140.56 582.18 134.78 598.7 129.15 615.22 124.4 631.74 121.12 648.25 119.74 664.77 120.42 678.45 136.19 690.02 151.96 697.81 167.73 700.68 183.5 698.22 199.27 690.77 215.04 679.43 230.81 665.85 246.58 652 262.35 639.89 278.13 631.29 293.9 627.44 309.67 628.91 325.44 635.49 341.21 646.21 356.98 659.51 372.75 673.47 388.52 686.05 404.29 695.42 420.06 700.23 435.83 699.76 451.6 694.09 467.37 684.04 483.14 671.08 498.91 657.09 514.68 644.1 530.45 634 546.22 628.27 561.99 627.74 577.76 632.47 593.53 639.94 616.33 621.81 626.82 605.55 635.01 589.28 646.89 573.01 660.95 556.75 675.39 540.48 688.39 524.21 698.28 507.95 703.8 491.68 704.26 475.41 699.59 459.15 690.4 442.88 677.84 426.61 663.52 410.34 649.26 394.08 636.87 377.81 627.94 361.54 623.6 345.28 624.4 329.01 630.24 312.74 640.37 296.48 653.52 280.21 667.99 263.94 681.96 247.68 693.64 231.41 701.55 215.14 704.68 198.88 702.62 182.61 695.66 166.34 684.66 150.08 671.03 133.81 656.5 130.97 640.14 128.86 623.78 127.78 607.42 127.9 591.07 129.2 574.71 131.49 558.35 134.43 541.99 137.6 525.63 140.54 509.27 142.81 492.91 144.09 476.55 144.2 460.19 143.11 443.83 140.99 427.47 138.14 411.11 134.98 394.75 131.97 378.39 129.54 362.03 128.05 345.67 127.72 329.31 128.59 312.95 130.54 296.59 133.28 280.23 136.42 263.87 139.49 247.51 142.06 231.15 143.75 214.8 144.3 198.44 143.65 182.08 141.89 165.72 139.27 149.36 136.17 133" stroke-dasharray="12 7" transform="rotate(8.08, 400, 400)" opacity="0.48"></path><path d="M149.43 147.9Q165.47 153.5 181.52 158.34 197.56 161.85 213.61 163.63 229.65 163.45 245.7 161.35 261.74 157.57 277.79 152.56 293.83 146.89 309.88 141.24 325.92 136.25 341.97 132.53 358.01 130.5 374.06 130.4 390.1 132.24 406.15 135.8 422.19 140.68 438.24 146.3 454.28 151.99 470.33 157.11 486.37 161.04 502.42 163.32 518.46 163.7 534.51 162.12 550.55 158.77 566.6 154.05 582.64 148.5 598.69 142.77 614.73 137.54 630.78 133.41 646.82 130.88 662.87 130.22 674.69 145.31 683.61 160.39 688.44 175.47 688.53 190.55 683.87 205.64 675.08 220.72 663.33 235.8 650.21 250.88 637.46 265.97 626.78 281.05 619.61 296.13 616.91 311.21 619.03 326.3 625.69 341.38 636 356.46 648.59 371.54 661.76 386.63 673.76 401.71 682.99 416.79 688.21 431.87 688.71 446.96 684.44 462.04 675.97 477.12 664.43 492.2 651.35 507.29 638.5 522.37 627.58 537.45 620.06 552.53 616.95 567.62 618.65 582.7 624.95 597.78 635 612.86 619.61 614.42 604.22 620.49 588.83 630.36 573.44 642.88 558.05 656.59 542.67 669.87 527.28 681.18 511.89 689.19 496.5 692.97 481.11 692.07 465.72 686.6 450.33 677.19 434.94 664.96 419.56 651.32 404.17 637.88 388.78 626.21 373.39 617.68 358 613.27 342.61 613.51 327.22 618.38 311.83 627.29 296.45 639.21 281.06 652.75 265.67 666.31 250.28 678.31 234.89 687.36 219.5 692.38 204.11 692.79 188.72 688.55 173.33 680.15 157.95 668.57 142.56 655.17 140.08 639.32 138.53 623.46 138.11 607.61 138.87 591.76 140.73 575.91 143.42 560.06 146.59 544.2 149.81 528.35 152.66 512.5 154.75 496.65 155.8 480.8 155.68 464.94 154.39 449.09 152.12 433.24 149.16 417.39 145.91 401.53 142.8 385.68 140.26 369.83 138.62 353.98 138.1 338.13 138.76 322.27 140.53 306.42 143.16 290.57 146.31 274.72 149.54 258.87 152.44 243.01 154.61 227.16 155.76 211.31 155.74 195.46 154.54 179.61 152.34 163.75 149.43 147.9" stroke-dasharray="0 8" transform="rotate(12.12, 400, 400)" opacity="0.98"></path><path d="M162.82 163Q178.35 168.08 193.89 172.08 209.43 174.57 224.97 175.29 240.51 174.15 256.04 171.29 271.58 166.99 287.12 161.74 302.66 156.08 318.2 150.63 333.73 145.97 349.27 142.59 364.81 140.87 380.35 140.98 395.89 142.91 411.42 146.46 426.96 151.25 442.5 156.76 458.04 162.4 473.58 167.57 489.11 171.71 504.65 174.38 520.19 175.3 535.73 174.37 551.27 171.68 566.8 167.52 582.34 162.34 597.88 156.7 613.42 151.2 628.96 146.42 644.49 142.89 660.03 140.97 669.47 155.41 675.53 169.84 677.5 184.28 675.11 198.72 668.67 213.15 658.97 227.59 647.18 242.03 634.76 256.46 623.23 270.9 613.99 285.34 608.18 299.77 606.52 314.21 609.2 328.65 615.89 343.09 625.78 357.52 637.66 371.96 650.07 386.4 661.48 400.83 670.52 415.27 676.06 429.71 677.43 444.14 674.46 458.58 667.51 473.02 657.44 487.45 645.48 501.89 633.09 516.33 621.8 530.76 612.97 545.2 607.7 559.64 606.63 574.07 609.89 588.51 617.08 602.95 602.53 607.34 587.97 615.45 573.42 626.4 558.86 639.02 544.31 651.96 529.75 663.84 515.2 673.37 500.64 679.54 486.09 681.69 471.53 679.58 456.98 673.45 442.43 663.95 427.87 652.1 413.32 639.16 398.76 626.53 384.21 615.55 369.65 607.41 355.1 602.97 340.54 602.72 325.99 606.67 311.43 614.41 296.88 625.1 282.33 637.6 267.77 650.58 253.22 662.63 238.66 672.48 224.11 679.05 209.55 681.66 195 680.02 180.44 674.3 165.89 665.12 151.33 653.47 149.41 638.14 148.54 622.81 148.83 607.48 150.24 592.16 152.59 576.83 155.62 561.5 158.93 546.18 162.12 530.85 164.82 515.52 166.67 500.19 167.47 484.87 167.1 469.54 165.62 454.21 163.21 438.89 160.15 423.56 156.84 408.23 153.66 392.9 151.02 377.58 149.23 362.25 148.51 346.92 148.96 331.6 150.51 316.27 152.98 300.94 156.06 285.61 159.38 270.29 162.53 254.96 165.13 239.63 166.85 224.31 167.49 208.98 166.96 193.65 165.34 178.32 162.82 163" stroke-dasharray="12 8" transform="rotate(16.16, 400, 400)" opacity="0.46"></path><path d="M176.15 178.04Q191.14 182.33 206.12 185.33 221.11 186.73 236.1 186.39 251.09 184.36 266.08 180.82 281.06 176.13 296.05 170.75 311.04 165.19 326.03 160 341.02 155.69 356 152.68 370.99 151.27 385.98 151.58 400.97 153.6 415.96 157.13 430.94 161.81 445.93 167.19 460.92 172.75 475.91 177.94 490.9 182.26 505.88 185.29 520.87 186.72 535.86 186.42 550.85 184.41 565.84 180.9 580.82 176.23 595.81 170.85 610.8 165.29 625.79 160.09 640.78 155.76 655.76 152.73 662.49 166.55 665.7 180.38 665.03 194.21 660.56 208.04 652.79 221.86 642.59 235.69 631.09 249.52 619.58 263.35 609.34 277.18 601.53 291 597 304.83 596.27 318.66 599.42 332.49 606.09 346.31 615.55 360.14 626.73 373.97 638.39 387.8 649.22 401.62 658.01 415.45 663.79 429.28 665.91 443.11 664.12 456.94 658.64 470.76 650.07 484.59 639.37 498.42 627.73 512.25 616.46 526.07 606.81 539.9 599.87 553.73 596.39 567.56 596.79 581.39 601 595.21 587.23 601.89 573.46 611.41 559.69 622.85 545.91 635.08 532.14 646.91 518.37 657.19 504.6 664.91 490.83 669.31 477.06 669.97 463.29 666.82 449.52 660.18 435.75 650.68 421.98 639.26 408.21 627.03 394.44 615.19 380.66 604.89 366.89 597.14 353.12 592.7 339.35 592.01 325.58 595.12 311.81 601.73 298.04 611.21 284.27 622.62 270.5 634.84 256.73 646.7 242.96 657.01 229.19 664.79 215.42 669.26 201.64 669.99 187.87 666.92 174.1 660.33 160.33 650.88 159.12 636.11 159 621.33 160 606.55 162.01 591.78 164.8 577 168.05 562.22 171.41 547.45 174.5 532.67 176.98 517.89 178.56 503.12 179.08 488.34 178.47 473.57 176.8 458.79 174.26 444.01 171.13 429.24 167.76 414.46 164.53 399.68 161.8 384.91 159.88 370.13 158.97 355.35 159.18 340.58 160.48 325.8 162.74 311.02 165.7 296.25 169.02 281.47 172.34 266.7 175.29 251.92 177.53 237.14 178.82 222.37 179.02 207.59 178.09 192.81 176.15 178.04" stroke-dasharray="14 10" transform="rotate(20.200000000000003, 400, 400)" opacity="0.41"></path><path d="M189.23 192.77Q203.61 196.07 218 197.95 232.39 198.23 246.78 196.9 261.17 194.07 275.56 189.99 289.95 185.02 304.34 179.61 318.73 174.23 333.12 169.36 347.5 165.44 361.89 162.81 376.28 161.7 390.67 162.21 405.06 164.3 419.45 167.79 433.84 172.35 448.23 177.6 462.62 183.05 477.01 188.24 491.39 192.69 505.78 196.02 520.17 197.93 534.56 198.24 548.95 196.94 563.34 194.14 577.73 190.08 592.12 185.13 606.51 179.72 620.9 174.33 635.29 169.45 649.67 165.51 653.59 178.75 654.1 192 651.15 205.25 645.05 218.49 636.4 231.74 626.09 244.99 615.16 258.24 604.73 271.48 595.84 284.73 589.4 297.98 586.06 311.23 586.16 324.47 589.69 337.72 596.3 350.97 605.31 364.21 615.8 377.46 626.72 390.71 636.96 403.96 645.48 417.2 651.42 430.45 654.17 443.7 653.45 456.94 649.35 470.19 642.26 483.44 632.92 496.69 622.27 509.93 611.39 523.18 601.38 536.43 593.26 549.67 587.85 562.92 585.7 576.17 587.02 589.42 573.98 597.75 560.94 608.05 547.9 619.41 534.86 630.82 521.82 641.28 508.78 649.84 495.74 655.76 482.7 658.51 469.66 657.84 456.62 653.82 443.58 646.79 430.54 637.39 417.5 626.45 404.46 614.93 391.42 603.87 378.38 594.23 365.34 586.88 352.3 582.46 339.26 581.38 326.22 583.72 313.18 589.27 300.14 597.56 287.1 607.83 274.06 619.18 261.02 630.6 247.98 641.08 234.94 649.69 221.9 655.67 208.86 658.49 195.82 657.89 182.78 653.93 169.74 646.96 169.33 632.76 170 618.57 171.68 604.38 174.21 590.18 177.32 575.99 180.7 561.8 184.02 547.6 186.92 533.41 189.12 519.22 190.4 505.02 190.62 490.83 189.77 476.64 187.92 462.44 185.27 448.25 182.09 434.06 178.69 419.86 175.43 405.67 172.63 391.48 170.57 377.28 169.47 363.09 169.44 348.9 170.48 334.7 172.48 320.51 175.25 306.32 178.49 292.12 181.89 277.93 185.1 263.74 187.79 249.54 189.68 235.35 190.6 221.16 190.44 206.96 189.23 192.77" stroke-dasharray="14 1" transform="rotate(24.24, 400, 400)" opacity="0.55"></path><path d="M201.85 206.95Q215.59 209.11 229.33 209.83 243.07 209.03 256.81 206.79 270.55 203.29 284.29 198.8 298.03 193.68 311.76 188.35 325.5 183.23 339.24 178.74 352.98 175.22 366.72 172.97 380.46 172.16 394.2 172.86 407.94 175.02 421.68 178.45 435.42 182.89 449.15 187.97 462.89 193.3 476.63 198.45 490.37 202.99 504.11 206.58 517.85 208.92 531.59 209.82 545.33 209.22 559.07 207.15 572.81 203.79 586.55 199.41 600.28 194.35 614.02 189.02 635.24 187.9 640.83 204.63 636.04 217.32 628.77 230 619.68 242.69 609.62 255.37 599.51 268.06 590.26 280.75 582.72 293.43 577.6 306.12 575.35 318.81 576.17 331.49 580.01 344.18 586.5 356.86 595.05 369.55 604.87 382.24 615.08 394.92 624.73 407.61 632.93 420.29 638.95 432.98 642.22 445.67 642.45 458.35 639.61 471.04 633.97 483.72 626.05 496.41 616.56 509.1 606.38 521.78 596.44 534.47 587.65 547.15 580.81 559.84 576.56 572.53 575.27 585.21 562.91 594.53 550.55 605 538.19 615.8 525.83 626.05 513.47 634.93 501.11 641.74 488.75 645.92 476.39 647.15 464.03 645.32 451.67 640.58 439.31 633.31 426.94 624.09 414.58 613.67 402.22 602.87 389.86 592.56 377.5 583.57 365.14 576.61 352.78 572.25 340.42 570.83 328.06 572.47 315.7 577.03 303.34 584.16 290.98 593.27 278.62 603.64 266.26 614.44 253.9 624.81 241.54 633.91 229.17 641.01 216.81 645.55 204.45 647.16 192.09 645.71 179.73 641.33 180.16 627.75 181.58 614.18 183.87 600.6 186.8 587.03 190.12 573.46 193.52 559.88 196.69 546.31 199.34 532.73 201.22 519.16 202.17 505.58 202.09 492.01 201 478.44 198.99 464.86 196.25 451.29 193.03 437.71 189.62 424.14 186.34 410.56 183.48 396.99 181.31 383.42 180.03 369.84 179.76 356.27 180.51 342.69 182.22 329.12 184.74 315.54 187.83 301.97 191.21 288.4 194.56 274.82 197.6 261.25 200.03 247.67 201.63 234.1 202.26 220.52 201.85 206.95" stroke-dasharray="6 5" transform="rotate(28.28, 400, 400)" opacity="0.95"></path><path d="M213.85 220.35Q226.89 221.31 239.93 220.88 252.97 219.1 266.01 216.08 279.05 212.05 292.09 207.3 305.13 202.16 318.17 197.02 331.21 192.23 344.25 188.14 357.29 185.05 370.33 183.18 383.37 182.66 396.41 183.54 409.45 185.74 422.49 189.11 435.53 193.41 448.57 198.32 461.61 203.5 474.65 208.57 487.69 213.17 500.73 216.96 513.77 219.68 526.81 221.13 539.85 221.2 552.89 219.88 565.93 217.28 578.97 213.58 592.01 209.05 605.05 204.01 624 202.41 626.06 218.14 619.9 230.27 611.94 242.41 602.83 254.54 593.33 266.68 584.21 278.81 576.22 290.94 570.02 303.08 566.13 315.21 564.85 327.35 566.31 339.48 570.36 351.62 576.69 363.75 584.78 375.89 593.95 388.02 603.45 400.15 612.5 412.29 620.37 424.42 626.39 436.56 630.07 448.69 631.12 460.83 629.44 472.96 625.18 485.1 618.68 497.23 610.48 509.37 601.25 521.5 591.75 533.63 582.77 545.77 575.04 557.9 569.2 570.04 565.73 582.17 554 591.82 542.27 601.92 530.54 611.73 518.82 620.56 507.09 627.76 495.36 632.82 483.63 635.38 471.91 635.24 460.18 632.43 448.45 627.14 436.73 619.75 425 610.8 413.27 600.93 401.54 590.84 389.82 581.27 378.09 572.91 366.36 566.35 354.63 562.06 342.91 560.36 331.18 561.37 319.45 565.01 307.72 571.02 296 578.98 284.27 588.3 272.54 598.32 260.81 608.32 249.09 617.57 237.36 625.42 225.63 631.29 213.91 634.77 196.94 628.21 193.78 607.89 196.55 594.97 199.76 582.06 203.16 569.14 206.46 556.22 209.39 543.3 211.72 530.38 213.25 517.47 213.85 504.55 213.47 491.63 212.15 478.71 210 465.79 207.19 452.87 203.95 439.96 200.55 427.04 197.27 414.12 194.37 401.2 192.11 388.28 190.66 375.37 190.14 362.45 190.59 349.53 191.99 336.61 194.2 323.69 197.06 310.78 200.33 297.86 203.73 284.94 206.98 272.02 209.83 259.1 212.04 246.19 213.41 233.27 213.85 220.35" stroke-dasharray="6 9" transform="rotate(32.32, 400, 400)" opacity="0.49"></path><path d="M225.08 232.78Q237.38 232.55 249.68 231.07 261.98 228.43 274.27 224.79 286.57 220.4 298.87 215.53 311.17 210.5 323.46 205.63 335.76 201.24 348.06 197.59 360.36 194.94 372.65 193.45 384.95 193.21 397.25 194.24 409.55 196.47 421.84 199.77 434.14 203.92 446.44 208.64 458.74 213.65 471.03 218.62 483.33 223.22 495.63 227.17 507.93 230.21 520.22 232.14 532.52 232.84 544.82 232.27 557.12 230.46 569.41 227.53 581.71 223.67 594.01 219.12 610.83 217.46 610.03 232.32 603.01 243.91 594.81 255.49 586.04 267.07 577.34 278.66 569.35 290.24 562.65 301.82 557.75 313.41 554.98 324.99 554.57 336.57 556.54 348.15 560.75 359.74 566.88 371.32 574.49 382.9 583.02 394.49 591.84 406.07 600.3 417.65 607.79 429.24 613.75 440.82 617.74 452.4 619.48 463.98 618.84 475.57 615.85 487.15 610.75 498.73 603.9 510.32 595.81 521.9 587.07 533.48 578.33 545.07 570.23 556.65 563.35 568.23 558.21 579.82 547.08 589.21 535.95 598.46 524.82 606.97 513.68 614.2 502.55 619.69 491.42 623.07 480.29 624.14 469.16 622.82 458.02 619.21 446.89 613.52 435.76 606.13 424.63 597.52 413.5 588.22 402.36 578.85 391.23 570 380.1 562.25 368.97 556.08 357.84 551.89 346.7 549.96 335.57 550.41 324.44 553.21 313.31 558.17 302.18 564.99 291.04 573.22 279.91 582.33 268.78 591.75 257.65 600.86 246.52 609.07 235.38 615.87 224.25 620.82 208.54 617.69 206.58 599.57 209.68 587.34 213.03 575.11 216.37 562.89 219.46 550.66 222.08 538.44 224.03 526.21 225.17 513.98 225.42 501.76 224.75 489.53 223.23 477.3 220.95 465.08 218.08 452.85 214.85 440.63 211.47 428.4 208.21 416.17 205.3 403.95 202.96 391.72 201.35 379.49 200.6 367.27 200.75 355.04 201.81 342.82 203.69 330.59 206.25 318.36 209.3 306.14 212.63 293.91 215.98 281.68 219.12 269.46 221.8 257.23 223.84 245.01 225.08 232.78" stroke-dasharray="4 6" transform="rotate(36.36, 400, 400)" opacity="0.47"></path><path d="M235.46 244.1Q246.98 242.78 258.5 240.38 270.02 237.05 281.54 232.98 293.06 228.4 304.58 223.56 316.1 218.76 327.62 214.24 339.14 210.29 350.66 207.11 362.18 204.9 373.69 203.77 385.21 203.79 396.73 204.96 408.25 207.22 419.77 210.43 431.29 214.41 442.81 218.94 454.33 223.76 465.85 228.58 477.37 233.15 488.89 237.2 500.41 240.49 511.93 242.85 523.45 244.13 534.97 244.27 546.49 243.25 558.01 241.14 569.53 238.05 581.05 234.16 595.95 232.81 593.03 246.95 585.64 257.97 577.61 268.99 569.48 280.02 561.78 291.04 555 302.06 549.58 313.08 545.89 324.11 544.15 335.13 544.49 346.15 546.88 357.18 551.16 368.2 557.06 379.22 564.19 390.24 572.09 401.27 580.24 412.29 588.12 423.31 595.21 434.33 601.05 445.36 605.25 456.38 607.56 467.4 607.8 478.43 605.98 489.45 602.21 500.47 596.73 511.49 589.9 522.52 582.17 533.54 574.03 544.56 566.02 555.58 558.66 566.61 552.43 577.63 541.87 586.25 531.3 594.29 520.74 601.29 510.18 606.85 499.61 610.65 489.05 612.48 478.48 612.24 467.92 609.93 457.36 605.69 446.79 599.76 436.23 592.48 425.66 584.26 415.1 575.57 404.54 566.9 393.97 558.75 383.41 551.58 372.84 545.81 362.28 541.75 351.71 539.64 341.15 539.6 330.59 541.63 320.02 545.61 309.46 551.33 298.89 558.45 288.33 566.57 277.77 575.22 267.2 583.92 256.64 592.17 246.07 599.49 235.51 605.48 220.93 605.24 219.93 589.18 223.19 577.68 226.51 566.17 229.67 554.67 232.45 543.17 234.69 531.67 236.23 520.16 236.97 508.66 236.87 497.16 235.93 485.66 234.22 474.15 231.83 462.65 228.94 451.15 225.73 439.65 222.4 428.14 219.18 416.64 216.27 405.14 213.86 393.64 212.12 382.13 211.14 370.63 211 359.13 211.71 347.63 213.22 336.12 215.43 324.62 218.19 313.12 221.34 301.62 224.65 290.11 227.93 278.61 230.95 267.11 233.51 255.61 235.46 244.1" stroke-dasharray="3 15" transform="rotate(40.400000000000006, 400, 400)" opacity="0.69"></path><path d="M244.94 254.25Q255.66 251.97 266.38 248.85 277.09 245.04 287.81 240.72 298.53 236.11 309.25 231.45 319.96 226.97 330.68 222.89 341.4 219.41 352.11 216.72 362.83 214.93 373.55 214.16 384.26 214.42 394.98 215.72 405.7 217.98 416.42 221.09 427.13 224.9 437.85 229.21 448.57 233.82 459.28 238.48 470 242.96 480.72 247.05 491.44 250.54 502.15 253.24 512.87 255.04 523.59 255.83 534.3 255.58 545.02 254.29 555.74 252.05 566.45 248.94 573.87 260.2 560.58 282.62 553.33 293.07 546.75 303.51 541.21 313.96 537.03 324.41 534.46 334.85 533.63 345.3 534.6 355.74 537.3 366.19 541.6 376.64 547.23 387.08 553.88 397.53 561.16 407.97 568.67 418.42 575.96 428.87 582.63 439.31 588.29 449.76 592.61 460.2 595.35 470.65 596.36 481.1 595.57 491.54 593.03 501.99 588.89 512.43 583.37 522.88 576.81 533.33 569.57 543.77 562.07 554.22 554.73 564.66 547.98 575.11 537.97 582.57 527.96 589.15 517.95 594.52 507.94 598.41 497.92 600.63 487.91 601.07 477.9 599.7 467.89 596.59 457.88 591.9 447.86 585.87 437.85 578.79 427.84 571.02 417.83 562.95 407.82 554.98 397.81 547.52 387.79 540.92 377.78 535.54 367.77 531.62 357.76 529.38 347.75 528.92 337.73 530.26 327.72 533.35 317.71 538.01 307.7 544.03 297.69 551.1 287.67 558.86 277.66 566.93 267.65 574.9 257.64 582.38 247.63 588.99 235.53 578.53 240.13 555.32 242.98 544.56 245.38 533.81 247.18 523.06 248.28 512.31 248.62 501.55 248.19 490.8 247 480.05 245.12 469.3 242.66 458.54 239.76 447.79 236.59 437.04 233.33 426.29 230.16 415.53 227.27 404.78 224.83 394.03 222.96 383.28 221.78 372.52 221.36 361.77 221.72 351.02 222.84 340.27 224.66 329.51 227.06 318.76 229.93 308.01 233.08 297.26 236.34 286.5 239.52 275.75 242.45 265 244.94 254.25" stroke-dasharray="7 12" transform="rotate(44.44, 400, 400)" opacity="0.40"></path><path d="M253.58 263.2Q263.48 260.19 273.38 256.56 283.28 252.47 293.18 248.1 303.08 243.63 312.98 239.27 322.88 235.2 332.78 231.6 342.68 228.63 352.58 226.42 362.49 225.06 372.39 224.62 382.29 225.1 392.19 226.5 402.09 228.75 411.99 231.75 421.89 235.38 431.79 239.46 441.69 243.83 451.59 248.3 461.49 252.66 471.39 256.73 481.3 260.34 491.2 263.32 501.1 265.54 511 266.91 520.9 267.37 530.8 266.9 540.7 265.51 550.6 263.28 556.5 274.81 543.93 296.06 537.73 305.91 532.33 315.75 528.02 325.6 525 335.45 523.43 345.3 523.39 355.14 524.87 364.99 527.8 374.84 532.05 384.69 537.38 394.53 543.55 404.38 550.24 414.23 557.11 424.07 563.83 433.92 570.06 443.77 575.48 453.62 579.84 463.46 582.9 473.31 584.53 483.16 584.63 493.01 583.2 502.85 580.31 512.7 576.11 522.55 570.81 532.4 564.67 542.24 557.99 552.09 551.12 561.94 544.39 571.78 534.93 577.81 525.46 582.79 516 586.52 506.54 588.83 497.07 589.62 487.61 588.85 478.15 586.57 468.68 582.86 459.22 577.9 449.76 571.89 440.29 565.1 430.83 557.83 421.36 550.39 411.9 543.11 402.44 536.3 392.97 530.26 383.51 525.26 374.05 521.52 364.58 519.18 355.12 518.37 345.66 519.11 336.19 521.38 326.73 525.06 317.27 530.01 307.8 536.01 298.34 542.79 288.87 550.05 279.41 557.49 269.95 564.78 260.48 571.6 249.39 563.94 253.77 542.73 256.22 532.75 258.16 522.76 259.49 512.78 260.15 502.8 260.1 492.82 259.35 482.83 257.94 472.85 255.93 462.87 253.42 452.88 250.54 442.9 247.43 432.92 244.26 422.93 241.17 412.95 238.32 402.97 235.85 392.98 233.89 383 232.54 373.02 231.85 363.03 231.87 353.05 232.6 343.07 233.99 333.08 235.98 323.1 238.48 313.12 241.34 303.13 244.44 293.15 247.62 283.17 250.72 273.18 253.58 263.2" stroke-dasharray="2 14" transform="rotate(48.48, 400, 400)" opacity="0.60"></path><path d="M261.46 271.03Q270.55 267.52 279.63 263.62 288.71 259.47 297.79 255.23 306.88 251.05 315.96 247.09 325.04 243.51 334.12 240.44 343.21 237.98 352.29 236.25 361.37 235.29 370.45 235.15 379.54 235.84 388.62 237.32 397.7 239.54 406.78 242.41 415.86 245.84 424.95 249.69 434.03 253.81 443.11 258.05 452.19 262.25 461.28 266.25 470.36 269.91 479.44 273.07 488.52 275.64 497.61 277.5 506.69 278.59 515.77 278.87 524.85 278.33 533.94 276.98 539.04 288.94 527.87 309 522.8 318.22 518.61 327.44 515.46 336.67 513.5 345.89 512.81 355.11 513.42 364.33 515.3 373.56 518.37 382.78 522.51 392 527.52 401.23 533.2 410.45 539.31 419.67 545.57 428.89 551.72 438.12 557.5 447.34 562.65 456.56 566.95 465.79 570.23 475.01 572.33 484.23 573.17 493.45 572.71 502.68 570.97 511.9 568.03 521.12 564.01 530.35 559.08 539.57 553.46 548.79 547.4 558.01 541.14 567.24 532.23 571.69 523.32 575.05 514.41 577.22 505.51 578.09 496.6 577.65 487.69 575.89 478.78 572.91 469.87 568.79 460.97 563.71 452.06 557.84 443.15 551.42 434.24 544.68 425.34 537.88 416.43 531.27 407.52 525.1 398.61 519.6 389.7 514.99 380.8 511.42 371.89 509.05 362.98 507.95 354.07 508.18 345.16 509.71 336.26 512.49 327.35 516.43 318.44 521.36 309.53 527.11 300.62 533.45 291.72 540.16 282.81 546.97 273.9 553.63 263.48 548 267.31 528.7 269.28 519.5 270.72 510.3 271.58 501.1 271.8 491.89 271.39 482.69 270.36 473.49 268.75 464.29 266.64 455.08 264.11 445.88 261.28 436.68 258.26 427.48 255.19 418.27 252.19 409.07 249.4 399.87 246.94 390.67 244.91 381.46 243.4 372.26 242.48 363.06 242.18 353.85 242.52 344.65 243.48 335.45 245.03 326.25 247.09 317.04 249.57 307.84 252.38 298.64 255.38 289.44 258.45 280.23 261.46 271.03" stroke-dasharray="7 15" transform="rotate(52.52, 400, 400)" opacity="0.26"></path><path d="M268.77 277.88Q285.32 270.2 301.86 262.23 318.41 255 334.95 249.42 351.5 246.21 368.04 245.77 384.59 248.16 401.13 253.08 417.68 259.89 434.22 267.73 450.77 275.61 467.31 282.52 483.86 287.58 500.4 290.15 519.63 296.94 512.55 321.14 505.61 338.28 502.51 355.42 503.7 372.57 509 389.71 517.65 406.85 528.38 423.99 539.64 441.14 549.79 458.28 557.35 475.42 561.22 492.57 560.84 509.71 556.27 526.85 548.16 543.99 537.71 561.14 521.04 565.83 504.37 566.22 487.69 562.26 471.02 554.44 454.35 543.76 437.68 531.59 421.01 519.47 404.34 508.94 387.67 501.35 371 497.66 354.33 498.34 337.65 503.3 320.98 511.92 304.31 523.09 282.03 532.91 280.63 513.59 283.01 496.76 283.21 479.92 281.19 463.08 277.26 446.25 271.97 429.41 266.11 412.57 260.53 395.74 256.03 378.9 253.27 362.06 252.65 345.23 254.26 328.39 257.87 311.55 262.96 294.72 268.77 277.88" stroke-dasharray="7 8" transform="rotate(56.56, 400, 400)" opacity="0.97"></path><path d="M275.74 283.95Q290.7 276.46 305.65 269.25 320.61 263.08 335.57 258.61 350.53 256.33 365.49 256.48 380.45 259.04 395.41 263.74 410.37 270.07 425.33 277.36 440.29 284.82 455.25 291.66 470.21 297.15 485.17 300.68 502.9 309.17 498.12 332.23 493.38 348.02 492.02 363.81 494.2 379.59 499.67 395.38 507.75 411.17 517.45 426.95 527.59 442.74 536.91 458.53 544.29 474.31 548.82 490.1 549.94 505.89 547.51 521.67 541.84 537.46 533.61 553.25 518.13 555.09 502.66 553.28 487.18 548.02 471.7 539.85 456.22 529.67 440.74 518.56 425.26 507.71 409.78 498.28 394.3 491.29 378.83 487.47 363.35 487.26 347.87 490.65 332.39 497.3 316.91 506.48 295.96 515.16 293.62 497.82 294.96 482.54 294.34 467.26 291.84 451.99 287.78 436.71 282.63 421.43 277.04 406.16 271.69 390.88 267.23 375.61 264.22 360.33 263.01 345.05 263.76 329.78 266.38 314.5 270.54 299.22 275.74 283.95" stroke-dasharray="9 10" transform="rotate(60.599999999999994, 400, 400)" opacity="0.46"></path><path d="M282.62 289.5Q296.04 282.63 309.46 276.41 322.88 271.4 336.3 268.03 349.72 266.62 363.14 267.28 376.56 269.95 389.99 274.4 403.41 280.23 416.83 286.93 430.25 293.9 443.67 300.53 457.09 306.22 470.51 310.47 486.97 320.3 484.67 342.08 481.9 356.46 481.99 370.84 484.91 385.23 490.38 399.61 497.84 413.99 506.52 428.38 515.56 442.76 524.04 457.14 531.09 471.53 536.01 485.91 538.28 500.29 537.69 514.68 534.29 529.06 528.43 543.44 514.2 542.86 499.97 539.37 485.74 533.27 471.51 525.1 457.28 515.6 443.05 505.6 428.82 495.99 414.59 487.62 400.36 481.23 386.13 477.4 371.9 476.46 357.67 478.49 343.44 483.32 329.21 490.51 309.58 497.49 306.16 481.81 306.51 468.07 305.18 454.34 302.31 440.6 298.19 426.86 293.25 413.13 287.97 399.39 282.9 385.66 278.54 371.92 275.35 358.18 273.64 344.45 273.59 330.71 275.21 316.97 278.32 303.24 282.62 289.5" stroke-dasharray="11 5" transform="rotate(64.64, 400, 400)" opacity="0.47"></path><path d="M289.71 294.84Q301.65 288.92 313.58 283.86 325.52 280.04 337.46 277.73 349.4 277.09 361.34 278.17 373.27 280.89 385.21 285.06 397.15 290.37 409.09 296.45 421.03 302.86 432.96 309.13 444.9 314.82 456.84 319.51 472.15 330.23 472.24 350.54 471.17 363.48 472.39 376.42 475.8 389.36 481.11 402.3 487.9 415.24 495.6 428.18 503.57 441.13 511.17 454.07 517.77 467.01 522.83 479.95 525.92 492.89 526.8 505.83 525.39 518.77 521.81 531.71 508.89 529.24 495.97 524.6 483.05 518.11 470.13 510.24 457.21 501.57 444.29 492.71 431.37 484.31 418.45 476.96 405.53 471.19 392.61 467.43 379.69 465.94 366.77 466.82 353.85 470.02 340.93 475.3 322.65 480.27 318.16 466.03 317.62 453.8 315.71 441.57 312.59 429.34 308.52 417.12 303.82 404.89 298.9 392.66 294.14 380.43 289.95 368.2 286.67 355.98 284.57 343.75 283.82 331.52 284.48 319.29 286.5 307.07 289.71 294.84" stroke-dasharray="3 1" transform="rotate(68.68, 400, 400)" opacity="0.99"></path><path d="M297.31 300.29Q307.82 295.55 318.33 291.74 328.84 289.08 339.36 287.73 349.87 287.75 360.38 289.16 370.89 291.87 381.4 295.72 391.91 300.5 402.42 305.93 412.94 311.71 423.45 317.5 433.96 322.98 444.47 327.84 458.66 338.94 460.87 357.56 461.15 369.03 463.19 380.5 466.84 391.98 471.86 403.45 477.94 414.92 484.67 426.39 491.62 437.86 498.33 449.33 504.37 460.8 509.34 472.27 512.92 483.74 514.88 495.22 508.54 510.54 490.43 509.12 478.88 502.64 467.32 495.34 455.77 487.61 444.22 479.91 432.66 472.67 421.11 466.3 409.55 461.16 398 457.55 386.44 455.68 374.89 455.64 363.33 457.44 351.78 460.99 334.95 463.85 329.54 450.88 328.26 440.13 325.92 429.37 322.68 418.61 318.74 407.86 314.36 397.1 309.82 386.35 305.43 375.59 301.47 364.83 298.19 354.08 295.81 343.32 294.48 332.56 294.29 321.81 295.26 311.05 297.31 300.29" stroke-dasharray="8 11" transform="rotate(72.72, 400, 400)" opacity="0.56"></path><path d="M305.7 306.21Q314.84 302.74 323.97 300.16 333.11 298.58 342.25 298.06 351.39 298.62 360.53 300.26 369.66 302.88 378.8 306.38 387.94 310.61 397.08 315.37 406.21 320.47 415.35 325.68 424.49 330.77 433.63 335.52 446.65 346.46 450.5 363.18 451.79 373.16 454.33 383.15 458 393.13 462.62 403.12 467.95 413.1 473.74 423.09 479.69 433.08 485.51 443.06 490.9 453.05 495.59 463.03 499.36 473.02 502.02 483.01 498.39 495.75 483.23 493.1 473.09 486.99 462.95 480.45 452.81 473.75 442.67 467.19 432.53 461.07 422.39 455.64 412.25 451.13 402.11 447.76 391.97 445.66 381.83 444.93 371.69 445.6 361.55 447.64 346.31 448.52 340.24 436.76 338.41 427.43 335.82 418.11 332.58 408.78 328.86 399.46 324.85 390.13 320.75 380.81 316.76 371.48 313.08 362.16 309.9 352.83 307.37 343.51 305.62 334.18 304.74 324.86 304.76 315.53 305.7 306.21" stroke-dasharray="14 17" transform="rotate(76.76, 400, 400)" opacity="0.58"></path><path d="M315.11 312.89Q330.73 309.24 346.35 308.74 361.96 311.46 377.58 317.04 393.2 324.78 408.81 333.7 424.43 342.65 440.04 350.5 441.09 367.49 445.76 384.49 453.37 401.48 462.81 418.48 472.72 435.47 481.65 452.47 481.32 473.09 456.96 465.62 439.59 454.57 422.21 444.97 404.84 438.05 387.46 434.69 370.09 435.31 352.71 439.83 350.23 423.96 345.39 408.1 338.89 392.23 331.68 376.36 324.81 360.5 319.27 344.63 315.87 328.76 315.11 312.89" stroke-dasharray="13 13" transform="rotate(80.80000000000001, 400, 400)" opacity="0.56"></path><path d="M325.73 320.65Q338.75 319.08 351.77 319.81 364.8 322.77 377.82 327.7 390.84 334.17 403.86 341.6 416.88 349.33 429.9 356.67 432.52 370.71 437.42 384.74 444.1 398.78 451.89 412.81 459.99 426.85 467.58 440.89 468.88 457.55 449.45 450.93 435.02 442.05 420.59 434.31 406.17 428.41 391.74 424.87 377.31 424 362.89 425.88 359.51 412.72 354.66 399.57 348.83 386.42 342.61 373.26 336.63 360.11 331.5 346.96 327.74 333.8 325.73 320.65" stroke-dasharray="1 8" transform="rotate(84.84, 400, 400)" opacity="0.60"></path><path d="M337.65 329.7Q348.11 329.73 358.57 331.26 369.04 334.19 379.5 338.36 389.96 343.54 400.42 349.43 410.88 355.68 421.34 361.96 424.67 373.08 429.26 384.19 434.81 395.31 440.96 406.42 447.3 417.53 453.43 428.65 455.48 441.7 440.56 436.41 429.09 429.62 417.63 423.65 406.17 418.84 394.7 415.45 383.24 413.7 371.78 413.66 368.1 403.17 363.63 392.67 358.67 382.18 353.54 371.68 348.56 361.19 344.07 350.69 340.35 340.2 337.65 329.7" stroke-dasharray="8 11" transform="rotate(88.88, 400, 400)" opacity="0.88"></path><path d="M350.89 340.23Q366.7 343.11 382.51 349.02 398.32 357.23 414.13 366.68 421.23 383.17 430.03 399.66 434.91 419.14 413.52 412.99 396.49 406.4 379.46 403.2 372.35 387.46 364.46 371.71 356.95 355.97 350.89 340.23" stroke-dasharray="4 1" transform="rotate(92.92, 400, 400)" opacity="0.36"></path><path d="M365.37 352.31Q376.02 355.35 386.67 359.69 397.31 365.06 407.96 371.17 413.25 382.05 419.1 392.92 409.88 401.81 386.08 394.41 380.83 383.88 375.39 373.36 370.12 362.83 365.37 352.31" stroke-dasharray="6 16" transform="rotate(96.96, 400, 400)" opacity="0.93"></path></g></svg>